<svg xmlns="http://www.w3.org/2000/svg" viewBox="0 0 1000 1000"><defs><style>.cls-1{fill:#202556;}.cls-2{fill:#fff;}.cls-3{fill:gold;}.cls-4{fill:#5ab767;}</style></defs><title>Asset 2</title><g id="Layer_2" data-name="Layer 2"><g id="Layer_1-2" data-name="Layer 1"><rect class="cls-1" width="1000" height="1000"/><g id="atfrg"><path class="cls-2" d="M635.24,441.68l0,.06a15.7,15.7,0,0,1-18.73,4.7A33.15,33.15,0,0,0,603.9,444a22.2,22.2,0,0,0-22.37,22.33v37.29h35.05a14.74,14.74,0,0,1,14.75,14.74h0a14.74,14.74,0,0,1-14.75,14.74l-35.05,12v88.78c0-2.59-7.63,5-17,5h0a17,17,0,0,1-17-17V470.56c0-31.36,25.66-57.14,57-56.66,9.45.14,17.34,1.53,24.08,4A15.4,15.4,0,0,1,635.24,441.68Z"/><path class="cls-2" d="M751.21,527.67a15.7,15.7,0,0,1-17.8,5.49,27.85,27.85,0,0,0-9.21-1.33c-12.77,0-19.65,5.57-19.65,21.62V635a17,17,0,0,1-17,17h0a17,17,0,0,1-17-17v-80.8c0-29.36,23.5-53.55,52.86-53.84h.86a55.92,55.92,0,0,1,19.95,3.42,15.63,15.63,0,0,1,7.06,23.87Z"/><path class="cls-2" d="M824.31,610.62c0,9.82,8.52,15.07,26.21,15.07h28.83c31.78,0,54,11.14,54,40,0,29.16-22.6,42.27-55.69,42.27H804.65a14.42,14.42,0,0,1-14.41-14.42h0a14.41,14.41,0,0,1,14.41-14.41h72.08c15.4,0,22.28-3.28,22.28-13.44,0-9.82-7.54-12.45-22-12.45H847.9c-31.78,0-57.66-13.43-57.66-42.58,0-7.1,3.15-13.6,7.12-18.88a10.7,10.7,0,0,0-.11-13.08,51,51,0,0,1-10.94-31.93c0-31.77,29.48-55,69.12-55,39.32,0,68.8,22.93,68.8,55,0,32.76-29.48,56-68.8,56a87.47,87.47,0,0,1-18.16-1.91c-6-1.29-12.17,2.61-12.89,8.69A8.08,8.08,0,0,0,824.31,610.62Zm-3.6-63.89c0,16.38,15.72,27.85,34.72,27.85,18.68,0,34.4-12.12,34.4-27.85,0-15.39-15.4-26.21-34.4-26.21C836.1,520.52,820.71,531.34,820.71,546.73Z"/><path class="cls-2" d="M510.38,574.15a17.13,17.13,0,0,0-29.24,12.11v15.38c-1.06,13.22-6.68,19.47-20.12,19.47-15.4,0-20.31-7.86-20.31-24.57v-53.4H489.2a14.74,14.74,0,0,0,0-29.48H440.71V483.85a17,17,0,1,0-34.07,0V596.54c0,35.38,20.31,54.71,54.38,54.71,16.88,0,30.47-4.83,39.85-14.09,6.88-6.79,11.49-16,13.45-27.36a78.24,78.24,0,0,0,1.08-13.26V586.26A17.07,17.07,0,0,0,510.38,574.15Z"/><g id="icon"><path class="cls-3" d="M372.33,530.09a152.87,152.87,0,0,0-81.7-135.33l18.14-114.82a9.53,9.53,0,0,0,1.79.18,9.48,9.48,0,1,0-4.77-1.34L257.41,382l.36.14q-3.4-.89-6.86-1.6l.42,0L229.11,330.2a9.34,9.34,0,1,0-4.84.39l-4.8,46.62.5.05c-1.39,0-2.78,0-4.18,0-81.1,1.9-147.24,68.05-149.15,149.14A152.87,152.87,0,0,0,219.47,683c2.32,0,4.63-.06,6.93-.16V683h92.53a53.4,53.4,0,0,0,53.4-53.4V537h-.15C372.27,534.72,372.33,532.4,372.33,530.09ZM343.27,537v87.8a30.69,30.69,0,0,1-30.69,30.69H219.46c-7.55,0-15-1.45-22.12-2.75A124.67,124.67,0,0,1,94.92,525.45c2.36-65,55.38-117.83,120.43-119.93A124.66,124.66,0,0,1,342.43,509.58c.32,2,.61,4,.84,6Z"/><path class="cls-4" d="M311.68,583.87a9.38,9.38,0,0,0-6.63-16,49.42,49.42,0,0,0-49.44,49.43,9.38,9.38,0,0,0,18.76,0,30.69,30.69,0,0,1,30.68-30.68A9.36,9.36,0,0,0,311.68,583.87Z"/><path class="cls-4" d="M305.05,555.73a9.38,9.38,0,1,0,0-18.76,80.32,80.32,0,0,0-80.33,80.32,9.38,9.38,0,0,0,18.76,0,61.56,61.56,0,0,1,61.57-61.56Z"/><path class="cls-4" d="M305.05,601.27a16,16,0,1,0,16,16A16,16,0,0,0,305.05,601.27Z"/><path class="cls-4" d="M305.05,524.77a9.38,9.38,0,1,0,0-18.76A111.27,111.27,0,0,0,193.77,617.29a9.38,9.38,0,1,0,18.76,0,92.51,92.51,0,0,1,92.52-92.52Z"/><circle class="cls-4" cx="226.19" cy="321.15" r="10.68"/><circle class="cls-4" cx="310.61" cy="270.76" r="10.68"/></g></g></g></g></svg>