<svg xmlns="http://www.w3.org/2000/svg" viewBox="0 0 436.85 604.21"><defs><style>.cls-1{fill:gold;}.cls-2{fill:#5ab767;}</style></defs><title>Asset 2</title><g id="Layer_2" data-name="Layer 2"><g id="Layer_1-2" data-name="Layer 1"><g id="icon"><path class="cls-1" d="M436.85,385.8A218.43,218.43,0,0,0,320.11,192.43L346,28.37a13.6,13.6,0,1,0-4.26-1.66L272.65,174.14l.51.2q-4.86-1.26-9.81-2.29l.6.07-31.74-71.94a13.34,13.34,0,1,0-6.92.56l-6.85,66.62.71.07c-2,0-4-.06-6,0C97.3,170.15,2.79,264.65.06,380.53c-2.89,123,96,223.68,218.38,223.68,3.31,0,6.61-.09,9.89-.22v.22H360.55a76.3,76.3,0,0,0,76.3-76.3V395.69h-.22C436.77,392.41,436.85,389.1,436.85,385.8Zm-41.52,9.89V521.15A43.86,43.86,0,0,1,351.47,565H218.42c-10.79,0-21.36-2.08-31.61-3.94A178.13,178.13,0,0,1,40.47,379.16C43.84,286.23,119.6,210.8,212.54,207.8A178.13,178.13,0,0,1,394.12,356.49c.47,2.85.88,5.72,1.21,8.61Z"/><path class="cls-2" d="M350.19,462.63a13.39,13.39,0,0,0-9.48-22.87,70.61,70.61,0,0,0-70.63,70.63,13.4,13.4,0,1,0,26.8,0,43.84,43.84,0,0,1,43.83-43.83A13.37,13.37,0,0,0,350.19,462.63Z"/><path class="cls-2" d="M340.71,422.43a13.41,13.41,0,0,0,0-26.81A114.75,114.75,0,0,0,225.94,510.4a13.4,13.4,0,0,0,26.8,0,88,88,0,0,1,88-88Z"/><path class="cls-2" d="M340.72,487.5a22.9,22.9,0,1,0,22.9,22.9A22.9,22.9,0,0,0,340.72,487.5Z"/><path class="cls-2" d="M340.71,378.2a13.41,13.41,0,0,0,0-26.81,159,159,0,0,0-159,159,13.4,13.4,0,0,0,26.8,0,132.18,132.18,0,0,1,132.2-132.2Z"/><circle class="cls-2" cx="228.03" cy="87.25" r="15.26"/><circle class="cls-2" cx="348.66" cy="15.26" r="15.26"/></g></g></g></svg>