<svg xmlns="http://www.w3.org/2000/svg" viewBox="0 0 867.26 644.19"><defs><style>.cls-1{fill:#fff;}.cls-2{fill:gold;}.cls-3{fill:#5ab767;}</style></defs><title>Asset 4</title><g id="Layer_2" data-name="Layer 2"><g id="Layer_1-2" data-name="Layer 1"><g id="logo"><g id="logo-2" data-name="logo"><path class="cls-1" d="M569.1,197.11l0,.06a15.7,15.7,0,0,1-18.73,4.71,33,33,0,0,0-12.57-2.42,22.2,22.2,0,0,0-22.37,22.33v37.29h35.05a14.74,14.74,0,0,1,14.75,14.74h0a14.74,14.74,0,0,1-14.75,14.74H515.39v88.78a17,17,0,0,1-17,17h0a17,17,0,0,1-17-17V226c0-31.35,25.66-57.14,57-56.66,9.45.14,17.34,1.53,24.07,4A15.39,15.39,0,0,1,569.1,197.11Z"/><path class="cls-1" d="M685.07,271.1a15.7,15.7,0,0,1-17.8,5.49,28.11,28.11,0,0,0-9.21-1.33c-12.78,0-19.66,5.57-19.66,21.63v81.57a17,17,0,0,1-17,17h0a17,17,0,0,1-17-17V297.67c0-29.36,23.51-53.56,52.87-53.85h.86a56,56,0,0,1,20,3.42,15.63,15.63,0,0,1,7.06,23.87Z"/><path class="cls-1" d="M758.17,354.05c0,9.83,8.52,15.07,26.21,15.07h28.83c31.77,0,54,11.14,54,40,0,29.15-22.6,42.26-55.69,42.26H738.51a14.42,14.42,0,0,1-14.41-14.42h0a14.41,14.41,0,0,1,14.41-14.41h72.08c15.39,0,22.27-3.28,22.27-13.43,0-9.83-7.53-12.45-22-12.45H781.76c-31.78,0-57.66-13.44-57.66-42.59,0-7.1,3.15-13.59,7.12-18.88a10.71,10.71,0,0,0-.11-13.08,51,51,0,0,1-10.94-31.93c0-31.77,29.48-55,69.12-55,39.31,0,68.8,22.93,68.8,55,0,32.77-29.49,56-68.8,56a87.4,87.4,0,0,1-18.16-1.92c-6-1.29-12.17,2.61-12.89,8.7A7.83,7.83,0,0,0,758.17,354.05Zm-3.6-63.89c0,16.39,15.72,27.85,34.72,27.85,18.68,0,34.4-12.12,34.4-27.85,0-15.39-15.4-26.2-34.4-26.2C770,264,754.57,274.77,754.57,290.16Z"/><path class="cls-1" d="M444.24,317.58A17.13,17.13,0,0,0,415,329.69v15.38c-1.06,13.22-6.68,19.47-20.12,19.47-15.4,0-20.31-7.86-20.31-24.57v-53.4h48.49a14.74,14.74,0,0,0,0-29.48H374.57V227.28a17,17,0,1,0-34.07,0V340c0,35.38,20.31,54.71,54.38,54.71,16.88,0,30.47-4.83,39.85-14.09,6.88-6.79,11.49-16,13.45-27.36A78.24,78.24,0,0,0,449.26,340V329.69A17.07,17.07,0,0,0,444.24,317.58Z"/><path class="cls-1" d="M206.73,567.2c0,45.86-38,77-83.86,77S39,613.06,39,567.2c0-46.19,38-77,83.87-77S206.73,521,206.73,567.2Zm-35.38,0c0-27.19-21.29-46.85-48.48-46.85S74.38,540,74.38,567.2s21.29,46.85,48.49,46.85S171.35,594.39,171.35,567.2Z"/><path class="cls-1" d="M358.37,641.89a17,17,0,0,1-17-17V554.75c0-20.58-13.11-34.77-34.23-34.39a35.12,35.12,0,0,0-34.24,35.24v69.26a17,17,0,0,1-17,17h0a17,17,0,0,1-17-17v-63.3c0-38.72,30.86-70.93,69.58-71.34H310A65.73,65.73,0,0,1,375.4,556v68.89a17,17,0,0,1-17,17Z"/><path class="cls-1" d="M424.25,641.58h0a17,17,0,0,1-17-17V435.84a17,17,0,0,1,17-17h0a17,17,0,0,1,17,17v188.7A17,17,0,0,1,424.25,641.58Z"/><path class="cls-1" d="M490.8,642.94h0a17,17,0,0,1-17-17V510.59a17,17,0,0,1,17-17h0a17,17,0,0,1,17,17V625.9A17,17,0,0,1,490.8,642.94Z"/><path class="cls-1" d="M659.47,641.89a17,17,0,0,1-17-17V554.75c0-20.58-13.12-34.77-34.24-34.39C589.13,520.7,574,536.53,574,555.6v69.26a17,17,0,0,1-17,17h0a17,17,0,0,1-17-17v-63.3c0-38.72,30.86-70.93,69.57-71.34h1.66A65.73,65.73,0,0,1,676.5,556v68.89a17,17,0,0,1-17,17Z"/><path class="cls-1" d="M786.2,490.22c-41.6,0-77.64,28.5-77.64,76,0,46.52,36.36,78,80.59,78,14.75,0,28.09-2.83,39.91-8.49a15.06,15.06,0,0,0,5.56-22.27v0a15.27,15.27,0,0,0-19.32-4.7,57.45,57.45,0,0,1-26.14,6,46.8,46.8,0,0,1-26.06-7.83c-12.29-8.26-6.15-27.56,8.66-27.56h76.66a14.06,14.06,0,0,0,14.12-14v-.13C862.53,524.61,835,490.22,786.2,490.22Zm0,75.84c-13.48,0-25.16-6.07-30.83-14.91A22.38,22.38,0,0,1,751.72,539a21.64,21.64,0,0,1,.4-4.12h0c2.53-13,16.83-22.9,34.08-22.9,17.52,0,32,10.24,34.19,23.5a20.59,20.59,0,0,1,.3,3.53A22.38,22.38,0,0,1,817,551.15C811.37,560,799.69,566.06,786.2,566.06Z"/><rect class="cls-1" x="473.76" y="427.42" width="34.07" height="34.07" rx="17.04" ry="17.04"/></g><g id="icon"><path class="cls-2" d="M305.73,270A152.84,152.84,0,0,0,224,134.68L242.17,19.86A9.61,9.61,0,0,0,244,20a9.5,9.5,0,1,0-4.77-1.35L190.81,121.88l.36.13c-2.27-.58-4.55-1.11-6.86-1.6l.42,0L162.52,70.11a9.34,9.34,0,1,0-4.85.39l-4.79,46.63.5.05c-1.4,0-2.78,0-4.19,0C68.09,119.08,2,185.22,0,266.32A152.88,152.88,0,0,0,152.88,422.86c2.31,0,4.63-.05,6.92-.15v.15h92.54a53.39,53.39,0,0,0,53.39-53.4V276.93h-.15Q305.73,273.48,305.73,270Zm-29.06,6.93v87.81A30.69,30.69,0,0,1,246,395.43H152.87c-7.56,0-15-1.46-22.13-2.76A124.66,124.66,0,0,1,28.32,265.36c2.36-65,55.38-117.83,120.43-119.93A124.67,124.67,0,0,1,275.83,249.5c.33,2,.62,4,.84,6Z"/><path class="cls-3" d="M245.09,323.78a9.38,9.38,0,0,0-6.64-16A49.42,49.42,0,0,0,189,357.21a9.38,9.38,0,0,0,18.76,0,30.66,30.66,0,0,1,30.67-30.68A9.41,9.41,0,0,0,245.09,323.78Z"/><path class="cls-3" d="M238.45,295.64a9.38,9.38,0,1,0,0-18.76,80.34,80.34,0,0,0-80.33,80.33,9.38,9.38,0,1,0,18.76,0,61.58,61.58,0,0,1,61.57-61.57Z"/><path class="cls-3" d="M238.46,341.18a16,16,0,1,0,16,16A16,16,0,0,0,238.46,341.18Z"/><path class="cls-3" d="M238.45,264.69a9.39,9.39,0,0,0,0-18.77A111.29,111.29,0,0,0,127.17,357.21a9.38,9.38,0,0,0,18.76,0,92.51,92.51,0,0,1,92.52-92.52Z"/><circle class="cls-3" cx="159.59" cy="61.06" r="10.68"/><circle class="cls-3" cx="244.01" cy="10.68" r="10.68"/></g></g></g></g></svg>