<svg xmlns="http://www.w3.org/2000/svg" viewBox="0 0 866.81 479.83"><defs><style>.cls-1{fill:#fff;}.cls-2{fill:gold;}.cls-3{fill:#5ab767;}</style></defs><title>Asset 1</title><g id="Layer_2" data-name="Layer 2"><g id="Layer_1-2" data-name="Layer 1"><g id="atfrg"><path class="cls-1" d="M568.65,225.59l0,.06a15.69,15.69,0,0,1-18.73,4.71A32.89,32.89,0,0,0,537.3,228a22.19,22.19,0,0,0-22.37,22.32v37.29H550a14.74,14.74,0,0,1,14.74,14.74h0A14.74,14.74,0,0,1,550,317.05H514.93v88.78a17,17,0,0,1-17,17h0a17,17,0,0,1-17-17V254.47c0-31.35,25.67-57.14,57-56.66a72.25,72.25,0,0,1,24.08,4C571.59,205.39,574.86,217.42,568.65,225.59Z"/><path class="cls-1" d="M684.62,299.59a15.72,15.72,0,0,1-17.8,5.48,28.12,28.12,0,0,0-9.21-1.32c-12.78,0-19.66,5.57-19.66,21.62v81.57a17,17,0,0,1-17,17h0a17,17,0,0,1-17-17V326.15c0-29.36,23.51-53.55,52.87-53.85h.86a55.74,55.74,0,0,1,19.95,3.42,15.63,15.63,0,0,1,7.06,23.87Z"/><path class="cls-1" d="M757.71,382.53c0,9.83,8.52,15.07,26.21,15.07h28.83c31.78,0,54.06,11.14,54.06,40,0,29.16-22.61,42.26-55.7,42.26H738.06a14.42,14.42,0,0,1-14.42-14.41h0A14.43,14.43,0,0,1,738.06,451h72.07c15.4,0,22.28-3.28,22.28-13.43,0-9.83-7.54-12.45-21.95-12.45H781.3c-31.78,0-57.66-13.43-57.66-42.59,0-7.09,3.16-13.59,7.12-18.88a10.7,10.7,0,0,0-.11-13.08,51,51,0,0,1-10.94-31.92c0-31.78,29.49-55,69.13-55,39.31,0,68.79,22.93,68.79,55,0,32.76-29.48,56-68.79,56a88.25,88.25,0,0,1-18.17-1.91c-6-1.3-12.16,2.6-12.89,8.69A10.11,10.11,0,0,0,757.71,382.53Zm-3.6-63.88c0,16.38,15.73,27.84,34.73,27.84,18.67,0,34.4-12.12,34.4-27.84,0-15.4-15.4-26.21-34.4-26.21C769.51,292.44,754.11,303.25,754.11,318.65Z"/><path class="cls-1" d="M443.78,346.06a17.13,17.13,0,0,0-29.24,12.11v15.38c-1.06,13.22-6.68,19.47-20.12,19.47-15.4,0-20.31-7.86-20.31-24.57v-53.4H422.6a14.74,14.74,0,0,0,0-29.48H374.11V255.76a17,17,0,1,0-34.07,0V368.45c0,35.38,20.31,54.71,54.38,54.71,16.88,0,30.47-4.83,39.85-14.09,6.88-6.79,11.49-16,13.45-27.36a78.24,78.24,0,0,0,1.08-13.26V358.17A17.07,17.07,0,0,0,443.78,346.06Z"/><g id="icon"><path class="cls-2" d="M305.73,270A152.84,152.84,0,0,0,224,134.68L242.17,19.86A9.61,9.61,0,0,0,244,20a9.5,9.5,0,1,0-4.77-1.35L190.81,121.88l.36.13c-2.27-.58-4.55-1.11-6.86-1.6l.42,0L162.52,70.11a9.34,9.34,0,1,0-4.85.39l-4.79,46.63.5.05c-1.4,0-2.78,0-4.19,0C68.09,119.08,2,185.22,0,266.32A152.88,152.88,0,0,0,152.88,422.86c2.31,0,4.63-.05,6.92-.15v.15h92.54a53.39,53.39,0,0,0,53.39-53.4V276.93h-.15Q305.73,273.48,305.73,270Zm-29.06,6.93v87.81A30.69,30.69,0,0,1,246,395.43H152.87c-7.56,0-15-1.46-22.13-2.76A124.66,124.66,0,0,1,28.32,265.36c2.36-65,55.38-117.83,120.43-119.93A124.67,124.67,0,0,1,275.83,249.5c.33,2,.62,4,.84,6Z"/><path class="cls-3" d="M245.09,323.78a9.38,9.38,0,0,0-6.64-16A49.42,49.42,0,0,0,189,357.21a9.38,9.38,0,0,0,18.76,0,30.66,30.66,0,0,1,30.67-30.68A9.41,9.41,0,0,0,245.09,323.78Z"/><path class="cls-3" d="M238.45,295.64a9.38,9.38,0,1,0,0-18.76,80.34,80.34,0,0,0-80.33,80.33,9.38,9.38,0,1,0,18.76,0,61.58,61.58,0,0,1,61.57-61.57Z"/><path class="cls-3" d="M238.46,341.18a16,16,0,1,0,16,16A16,16,0,0,0,238.46,341.18Z"/><path class="cls-3" d="M238.45,264.69a9.39,9.39,0,0,0,0-18.77A111.29,111.29,0,0,0,127.17,357.21a9.38,9.38,0,0,0,18.76,0,92.51,92.51,0,0,1,92.52-92.52Z"/><circle class="cls-3" cx="159.59" cy="61.06" r="10.68"/><circle class="cls-3" cx="244.01" cy="10.68" r="10.68"/></g></g></g></g></svg>